<svg width="532" height="354" viewBox="0 0 532 354" fill="none" xmlns="http://www.w3.org/2000/svg">
<g clip-path="url(#clip0_5_5)">
<path opacity="0.1" d="M310.096 70.599C278.798 69.4867 248.99 59.3846 220.545 48.3539C192.101 37.3233 163.888 25.0498 133.34 19.1936C113.692 15.4264 91.2192 14.8945 75.3914 25.427C60.1535 35.5824 55.2306 53.0641 52.5854 69.303C50.593 81.5184 49.4227 94.3722 54.8776 105.809C58.6689 113.75 65.3908 120.423 70.0429 128.03C86.2286 154.492 74.7869 187.124 57.252 212.962C49.031 225.086 39.4801 236.658 33.1306 249.551C26.7811 262.443 23.8457 277.236 29.4021 290.399C34.9054 303.456 48.0251 313.244 62.2378 320.135C91.1032 334.13 125.104 338.139 158.283 340.407C231.706 345.432 305.516 343.255 379.133 341.079C406.378 340.272 433.74 339.454 460.54 335.242C475.425 332.902 490.789 329.188 501.597 320.227C515.311 308.848 518.711 289.577 509.518 275.311C494.101 251.379 451.488 245.435 440.699 219.747C434.77 205.612 440.858 189.861 449.481 176.751C467.973 148.626 498.966 123.948 500.596 91.7946C501.718 69.714 486.818 47.5995 463.78 37.1492C439.635 26.196 406.146 27.5742 388.341 45.7039C369.974 64.351 337.733 71.5323 310.096 70.599Z" fill="#6C63FF"/>
<path d="M82.8193 353.977C102.372 353.977 118.223 350.928 118.223 347.168C118.223 343.407 102.372 340.359 82.8193 340.359C63.2665 340.359 47.4158 343.407 47.4158 347.168C47.4158 350.928 63.2665 353.977 82.8193 353.977Z" fill="#6C63FF"/>
<path d="M82.2247 349.673C84.5004 349.673 86.3452 347.257 86.3452 344.276C86.3452 341.295 84.5004 338.879 82.2247 338.879C79.9491 338.879 78.1043 341.295 78.1043 344.276C78.1043 347.257 79.9491 349.673 82.2247 349.673Z" fill="#3F3D56"/>
<path d="M82.2247 343.077C84.5004 343.077 86.3452 340.661 86.3452 337.68C86.3452 334.699 84.5004 332.283 82.2247 332.283C79.9491 332.283 78.1043 334.699 78.1043 337.68C78.1043 340.661 79.9491 343.077 82.2247 343.077Z" fill="#3F3D56"/>
<path d="M82.2247 336.481C84.5004 336.481 86.3452 334.065 86.3452 331.084C86.3452 328.103 84.5004 325.687 82.2247 325.687C79.9491 325.687 78.1043 328.103 78.1043 331.084C78.1043 334.065 79.9491 336.481 82.2247 336.481Z" fill="#3F3D56"/>
<path d="M82.2247 329.89C84.5004 329.89 86.3452 327.473 86.3452 324.493C86.3452 321.512 84.5004 319.096 82.2247 319.096C79.9491 319.096 78.1043 321.512 78.1043 324.493C78.1043 327.473 79.9491 329.89 82.2247 329.89Z" fill="#3F3D56"/>
<path d="M82.2247 323.294C84.5004 323.294 86.3452 320.877 86.3452 317.896C86.3452 314.916 84.5004 312.499 82.2247 312.499C79.9491 312.499 78.1043 314.916 78.1043 317.896C78.1043 320.877 79.9491 323.294 82.2247 323.294Z" fill="#3F3D56"/>
<path d="M82.2247 316.698C84.5004 316.698 86.3452 314.281 86.3452 311.3C86.3452 308.32 84.5004 305.903 82.2247 305.903C79.9491 305.903 78.1043 308.32 78.1043 311.3C78.1043 314.281 79.9491 316.698 82.2247 316.698Z" fill="#3F3D56"/>
<path d="M82.2247 310.102C84.5004 310.102 86.3452 307.685 86.3452 304.704C86.3452 301.724 84.5004 299.307 82.2247 299.307C79.9491 299.307 78.1043 301.724 78.1043 304.704C78.1043 307.685 79.9491 310.102 82.2247 310.102Z" fill="#3F3D56"/>
<path d="M97.6558 259.571C98.2205 258.855 98.7343 258.1 99.1936 257.312L88.3612 255.533L100.074 255.62C101.198 253.175 101.812 250.527 101.877 247.837C101.941 245.147 101.456 242.472 100.451 239.976L84.7391 248.129L99.2468 237.49C97.8878 235.146 96.061 233.107 93.88 231.5C91.6991 229.892 89.2107 228.751 86.5696 228.147C83.9286 227.542 81.1915 227.488 78.5285 227.987C75.8656 228.486 73.3338 229.528 71.0908 231.048C68.8478 232.567 66.9416 234.532 65.4907 236.82C64.0398 239.108 63.0752 241.67 62.6572 244.347C62.2391 247.024 62.3763 249.758 63.0604 252.38C63.7445 255.001 64.9608 257.454 66.6336 259.585C65.7561 260.702 65.0007 261.91 64.3801 263.188L78.4428 270.49L63.4516 265.461C62.397 268.572 62.1357 271.897 62.6913 275.135C63.247 278.372 64.602 281.42 66.6336 284.001C64.3424 286.914 62.9171 290.412 62.5205 294.097C62.1238 297.781 62.772 301.502 64.3909 304.836C66.0097 308.169 68.5338 310.979 71.6747 312.946C74.8156 314.912 78.4464 315.955 82.1519 315.955C85.8575 315.955 89.4883 314.912 92.6292 312.946C95.7701 310.979 98.2942 308.169 99.913 304.836C101.532 301.502 102.18 297.781 101.783 294.097C101.387 290.412 99.9615 286.914 97.6703 284.001C100.408 280.521 101.897 276.222 101.897 271.793C101.897 267.365 100.408 263.065 97.6703 259.585L97.6558 259.571Z" fill="#6C63FF"/>
<path opacity="0.1" d="M62.4119 271.772C62.406 276.2 63.8953 280.501 66.6384 283.977C64.3473 286.89 62.9219 290.388 62.5253 294.072C62.1287 297.757 62.7769 301.478 64.3957 304.811C66.0145 308.145 68.5387 310.955 71.6795 312.922C74.8204 314.888 78.4512 315.931 82.1568 315.931C85.8623 315.931 89.4931 314.888 92.634 312.922C95.7748 310.955 98.299 308.145 99.9178 304.811C101.537 301.478 102.185 297.757 101.788 294.072C101.392 290.388 99.9662 286.89 97.6751 283.977C100.306 280.626 62.4119 269.562 62.4119 271.772Z" fill="#F93636"/>
<path d="M254.343 265.001C254.643 268.87 256.132 272.874 259.266 275.157C262.4 277.439 267.385 277.396 269.779 274.33C270.583 273.179 271.174 271.893 271.525 270.534C273.542 264.16 274.973 257.187 272.763 250.876C267.777 250.552 261.998 248.206 258.255 252.326C255.233 255.683 253.995 260.528 254.343 265.001Z" fill="#3F3D56"/>
<path d="M277.488 226.01C276.825 231.634 275.698 237.234 275.814 242.897C275.858 245.082 276.09 247.249 276.095 249.444C276.103 255.145 274.602 260.746 271.743 265.678C271.442 266.258 271.039 266.779 270.553 267.216C269.407 268.145 267.681 268.067 266.394 267.357C265.137 266.575 264.116 265.467 263.439 264.15C259.837 257.98 259.735 250.479 258.309 243.482C257.216 238.128 255.301 232.94 254.609 227.523C254.159 224.037 254.227 220.482 253.511 217.039C253.294 215.999 252.684 214.437 252.283 212.904C251.916 211.536 251.712 210.192 252.09 209.268C252.859 207.377 255.378 208.112 257.017 208.228C262.791 208.656 268.588 208.642 274.359 208.185C274.929 208.141 275.577 208.117 275.979 208.523C276.154 208.728 276.286 208.967 276.366 209.224C276.825 210.482 277.176 211.776 277.415 213.093C278.213 217.305 277.991 221.72 277.488 226.01Z" fill="#FABDBD"/>
<g opacity="0.1">
<path opacity="0.1" d="M275.264 208.185C274.966 208.153 274.666 208.153 274.369 208.185C271.603 208.407 268.832 208.518 266.065 208.533C269.131 208.539 272.198 208.423 275.264 208.185Z" fill="black"/>
<path opacity="0.1" d="M267.371 267.356C266.114 266.575 265.093 265.466 264.416 264.15C260.814 257.98 260.712 250.479 259.285 243.482C258.192 238.128 256.277 232.939 255.586 227.523C255.136 224.037 255.204 220.482 254.488 217.039C254.271 215.999 253.661 214.437 253.26 212.904C252.892 211.536 252.689 210.191 253.066 209.268C253.227 208.889 253.496 208.567 253.841 208.343C254.186 208.119 254.59 208.003 255.001 208.011C253.777 207.928 252.583 208.073 252.099 209.268C251.722 210.191 251.925 211.536 252.293 212.904C252.694 214.437 253.303 215.999 253.521 217.039C254.237 220.482 254.169 224.037 254.619 227.523C255.31 232.944 257.225 238.133 258.318 243.482C259.745 250.479 259.846 257.989 263.449 264.15C264.126 265.466 265.147 266.575 266.404 267.356C267.176 267.783 268.061 267.962 268.938 267.869C268.388 267.797 267.857 267.623 267.371 267.356V267.356Z" fill="black"/>
</g>
<path d="M295.772 255.668C292.871 261.471 293.354 269.692 293.354 269.692C293.838 289.036 286.1 329.657 286.1 329.657H279.33C279.33 329.657 278.363 284.683 279.33 280.815C280.297 276.946 278.847 263.406 277.396 244.546C276.317 230.522 279.253 217.813 280.829 212.237C281.371 210.303 281.748 209.244 281.748 209.244C281.748 209.244 292.871 192.802 299.157 200.539C300.608 202.338 301.377 205.97 301.643 210.554C302.504 225.681 297.997 251.214 295.772 255.668Z" fill="#FABDBD"/>
<path opacity="0.1" d="M301.643 210.554C301.377 205.97 300.618 202.333 299.157 200.539C297.755 198.817 296.111 198.295 294.408 198.522C295.728 198.741 296.91 199.465 297.706 200.539C299.157 202.338 299.926 205.97 300.192 210.554C301.053 225.681 296.546 251.214 294.321 255.668C291.42 261.471 291.903 269.692 291.903 269.692C292.387 289.036 284.65 329.657 284.65 329.657H286.1C286.1 329.657 293.838 289.036 293.354 269.692C293.354 269.692 292.871 261.471 295.772 255.668C297.997 251.214 302.504 225.681 301.643 210.554Z" fill="black"/>
<path d="M275.81 327.892C275.269 328.316 274.802 328.826 274.427 329.401C273.561 331.035 274.789 332.989 276.105 334.29C277.42 335.591 279.006 336.983 279.006 338.836C279.006 340.325 277.879 341.602 276.617 342.395C275.94 342.82 275.089 343.362 275.229 344.165C275.278 344.368 275.365 344.56 275.486 344.731C276.569 346.389 278.489 347.361 280.433 347.729C282.377 348.096 284.384 347.937 286.361 347.777C286.658 347.788 286.947 347.688 287.174 347.497C287.317 347.304 287.394 347.07 287.391 346.829C287.488 345.804 287.425 344.721 287.875 343.797C288.504 342.535 289.95 341.892 290.777 340.76C291.937 339.213 291.778 337.061 291.338 335.18C290.37 331.084 288.218 326.412 284.988 323.574C281.245 320.314 278.31 325.537 275.81 327.892Z" fill="#3F3D56"/>
<path d="M290.462 84.1395C293.161 80.1063 292.46 74.4677 289.703 70.4539C286.947 66.4401 282.517 63.9158 277.947 62.2861C271.786 60.0906 264.992 59.3411 258.662 60.9901C253.623 62.3006 249.096 65.0426 244.347 67.1607C235.946 70.9092 226.811 72.7269 217.615 72.4802C207.406 72.1948 196.221 69.5786 187.656 75.1592C171.978 85.3581 178.952 113.116 164.12 124.485C160.121 127.551 155.087 128.891 150.638 131.255C146.189 133.62 141.972 137.736 142.078 142.775C142.127 145.192 143.19 147.499 144.496 149.545C150.057 158.361 160.455 163.815 170.866 163.714C181.278 163.612 191.438 158.075 197.439 149.554C198.943 147.422 200.268 145.047 202.449 143.626C206.802 140.772 212.537 142.77 217.731 143.195C229.293 144.138 240.861 135.458 243.163 124.069C244.13 119.209 243.96 113.401 247.873 110.35C251.031 107.888 255.475 108.416 259.479 107.995C266.8 107.236 272.579 102.675 276.554 96.7176C278.377 93.9853 278.59 90.7211 281.076 88.5691C283.755 86.2044 287.899 87.9501 290.462 84.1395Z" fill="#3F3D56"/>
<g opacity="0.1">
<path opacity="0.1" d="M207.943 73.4135C212.183 73.5298 216.425 73.2057 220.598 72.4463C219.447 72.4802 218.287 72.4802 217.131 72.4463C209.118 72.2239 200.505 70.57 193.029 72.5624C197.962 72.6107 203.063 73.2781 207.943 73.4135Z" fill="black"/>
<path opacity="0.1" d="M192.768 144.588C190.587 146.01 189.262 148.384 187.758 150.517C183.135 157.005 176.379 161.663 168.671 163.675C169.236 163.699 169.802 163.714 170.373 163.709C180.794 163.607 190.945 158.07 196.946 149.55C198.45 147.417 199.775 145.043 201.956 143.621L202.333 143.389C198.919 142.92 195.568 142.755 192.768 144.588Z" fill="black"/>
<path opacity="0.1" d="M289.215 70.4394C286.463 66.445 282.028 63.9013 277.459 62.2716C271.298 60.0761 264.503 59.3266 258.173 60.9756C258.028 61.0094 257.888 61.053 257.747 61.0916C261.341 61.292 264.886 62.0154 268.27 63.2388C272.84 64.8685 277.275 67.4121 280.026 71.4066C282.778 75.401 283.484 81.0783 280.786 85.0921C278.223 88.9173 274.078 87.1716 271.365 89.5266C268.88 91.6786 268.667 94.9428 266.844 97.6751C263.425 102.787 258.666 106.863 252.742 108.411C254.778 108.169 256.925 108.198 258.956 107.985C266.278 107.226 272.057 102.666 276.032 96.7079C277.855 93.9756 278.068 90.7114 280.554 88.5595C283.266 86.2044 287.411 87.9501 289.974 84.125C292.677 80.0918 291.976 74.4338 289.215 70.4394Z" fill="black"/>
<path opacity="0.1" d="M249.773 108.952C245.793 109.368 241.349 108.846 238.167 111.307C234.255 114.359 234.443 120.167 233.457 125.027C231.76 133.523 224.864 140.531 216.676 143.137L217.252 143.19C228.815 144.133 240.382 135.453 242.684 124.064C243.651 119.204 243.482 113.397 247.394 110.345C248.292 109.673 249.312 109.181 250.397 108.894C250.179 108.899 249.981 108.933 249.773 108.952Z" fill="black"/>
</g>
<path d="M366.618 66.827C366.618 66.827 355.012 90.0392 351.143 98.7438C347.274 107.448 311.972 120.505 307.136 120.989C305.839 121.167 304.631 121.749 303.684 122.652C300.951 125.07 299.399 129.21 299.399 129.21C299.399 129.21 301.333 142.267 298.915 164.028C298.867 164.449 298.823 164.87 298.785 165.276C296.676 185.983 301.092 190.867 301.092 190.867C301.092 190.867 254.183 208.76 255.634 185.548C256.089 178.241 256.021 172.902 255.571 168.438C255.079 163.869 254.15 159.357 252.796 154.966C251.649 150.957 250.281 146.561 248.864 140.574C248.182 137.587 247.283 134.654 246.175 131.797C246.141 131.71 246.108 131.623 246.079 131.541C243.661 125.539 241.243 123.6 239.86 122.971C238.554 122.403 237.309 121.703 236.146 120.882C231.677 117.657 222.088 110.427 213.548 101.887C201.941 90.281 190.335 62.7165 190.335 62.7165C190.335 62.7165 186.95 46.7581 194.688 33.7012C202.425 20.6444 199.04 59.3314 199.04 59.3314C199.04 59.3314 213.064 78.1913 216.449 86.8959C218.19 91.3739 220.956 93.6661 223.219 94.8557C226.958 96.8021 230.538 99.04 233.926 101.549C236.215 103.279 238.621 104.849 241.127 106.249C246.533 109.151 253.008 112.424 258.405 113.285C259.248 113.424 260.1 113.497 260.954 113.503C261.359 113.516 261.761 113.435 262.13 113.268C262.499 113.1 262.825 112.849 263.081 112.536C264.532 110.829 264.498 107.153 264.165 104.131C263.986 102.565 263.722 101.01 263.372 99.474C263.372 99.474 279.088 89.5604 278.605 101.65C278.53 102.986 278.654 104.326 278.972 105.625C279.229 106.818 279.799 107.921 280.622 108.822C281.445 109.722 282.493 110.388 283.658 110.751C285.545 111.305 287.542 111.37 289.461 110.94C290.059 110.838 290.637 110.64 291.173 110.355C292.624 109.388 307.132 105.035 311.484 104.552C315.836 104.068 337.598 93.4291 337.598 93.4291L361.293 60.5452C361.293 60.5452 360.81 41.2017 370.482 33.4643C380.153 25.7269 366.618 66.827 366.618 66.827Z" fill="#FABDBD"/>
<g opacity="0.1">
<path opacity="0.1" d="M298.785 162.374C298.362 166.26 298.177 170.169 298.229 174.077C298.277 171.524 298.446 168.608 298.785 165.276C298.824 164.87 298.867 164.449 298.915 164.028C299.761 156.581 300.165 149.09 300.124 141.595C300.05 148.121 299.646 154.64 298.915 161.127C298.886 161.547 298.824 161.968 298.785 162.374Z" fill="black"/>
<path opacity="0.1" d="M263.875 99.1646C263.551 99.3532 263.391 99.4692 263.391 99.4692C263.861 101.538 264.172 103.64 264.32 105.756C264.417 103.549 264.268 101.338 263.875 99.1646V99.1646Z" fill="black"/>
<path opacity="0.1" d="M199.267 56.7065C199.504 53.3212 199.857 47.2517 199.79 41.8545C199.707 49.0701 199.064 56.4308 199.064 56.4308L199.267 56.7065Z" fill="black"/>
<path opacity="0.1" d="M255.668 184.982C255.668 185.171 255.668 185.359 255.634 185.548C254.184 208.76 301.092 190.867 301.092 190.867C300.543 190.126 300.129 189.295 299.868 188.411C292.803 190.925 257.298 202.619 255.668 184.982Z" fill="black"/>
<path opacity="0.1" d="M366.618 63.9255C366.618 63.9255 355.012 87.1377 351.143 95.8423C347.274 104.547 311.972 117.604 307.136 118.087C305.839 118.265 304.631 118.847 303.684 119.751C300.951 122.169 299.399 126.308 299.399 126.308C299.399 126.308 299.515 127.097 299.655 128.596C300.197 127.353 301.59 124.5 303.684 122.652C304.631 121.749 305.839 121.167 307.136 120.989C311.972 120.505 347.274 107.448 351.143 98.7439C355.012 90.0393 366.618 66.827 366.618 66.827C366.618 66.827 374.795 41.9948 373.896 34.5669C373.151 44.0839 366.618 63.9255 366.618 63.9255Z" fill="black"/>
<path opacity="0.1" d="M255.571 165.537C255.079 160.968 254.15 156.456 252.796 152.064C251.65 148.055 250.281 143.659 248.864 137.673C248.182 134.686 247.283 131.752 246.175 128.896C246.141 128.808 246.108 128.721 246.079 128.639C243.661 122.638 241.243 120.699 239.86 120.07C238.554 119.502 237.309 118.802 236.146 117.981C231.677 114.755 222.088 107.526 213.548 98.9856C201.942 87.3795 190.335 59.815 190.335 59.815C189.906 57.488 189.667 55.13 189.62 52.7643C189.502 56.0977 189.742 59.4343 190.335 62.7165C190.335 62.7165 201.942 90.281 213.548 101.887C222.088 110.427 231.677 117.657 236.146 120.882C237.319 121.705 238.573 122.405 239.889 122.972C241.267 123.6 243.68 125.539 246.108 131.541C246.137 131.623 246.171 131.71 246.204 131.797C247.308 134.654 248.201 137.587 248.879 140.574C250.296 146.561 251.664 150.957 252.81 154.966C254.164 159.358 255.094 163.869 255.586 168.439C255.789 170.46 255.91 172.66 255.944 175.136C256.002 171.932 255.878 168.727 255.571 165.537Z" fill="black"/>
</g>
<path d="M303.466 144.53C302.728 145.751 302.081 147.024 301.532 148.341C300.801 150.372 300.797 152.582 300.661 154.734C300.468 157.754 300.009 160.751 299.288 163.69C299.171 164.231 299.009 164.762 298.804 165.276C298.66 165.622 298.469 165.947 298.238 166.243C297.981 166.558 297.677 166.834 297.339 167.06C296.82 167.406 296.271 167.706 295.7 167.955C288.968 171.098 281.627 173.874 274.281 172.791C271.176 172.248 268.171 171.237 265.369 169.793C262.709 168.501 259.701 166.968 256.945 168.042C256.522 168.257 256.066 168.399 255.596 168.463C255.505 168.464 255.414 168.456 255.325 168.439C254.416 168.264 254.416 165.199 254.208 164.294C253.415 160.822 253.294 158.008 252.82 154.99C252.568 153.321 252.178 151.676 251.654 150.072C249.72 144.22 249.135 137.982 249.135 131.85C249.135 131.546 246.959 131.85 246.233 131.821C246.05 131.821 245.948 131.792 245.992 131.729C246.033 131.669 246.082 131.614 246.137 131.565C246.39 131.359 246.685 131.212 247.002 131.135L247.573 130.965C250.561 130.119 253.859 129.766 256.094 127.662C258.415 125.491 258.995 122.024 258.894 118.851C258.865 117.831 258.367 115.355 258.449 113.3C259.291 113.439 260.143 113.512 260.997 113.517C261.402 113.53 261.805 113.45 262.174 113.282C262.543 113.114 262.868 112.864 263.125 112.55C263.932 114.112 264.63 115.728 265.214 117.386C266.036 119.408 266.665 121.535 267.869 123.363C269.803 126.342 273.372 128.301 276.922 128.001C280.471 127.701 283.774 124.974 284.408 121.472C284.964 118.402 283.673 113.982 283.702 110.79C285.589 111.343 287.586 111.408 289.505 110.979C289.586 111.176 289.656 111.378 289.713 111.583C290.801 115.316 292.252 119.601 295.903 120.926C298.263 121.777 301.053 121.139 303.234 122.377C303.401 122.473 303.563 122.58 303.717 122.696C304.221 123.07 304.655 123.53 304.999 124.055C305.895 125.534 306.427 127.205 306.551 128.929C307.11 134.321 306.035 139.757 303.466 144.53V144.53Z" fill="#6C63FF"/>
<path opacity="0.1" d="M278.972 105.62C276.56 106.55 273.963 106.9 271.39 106.64C268.818 106.38 266.343 105.519 264.165 104.126C263.987 102.56 263.722 101.006 263.372 99.4692C263.372 99.4692 279.088 89.5557 278.605 101.645C278.53 102.981 278.654 104.321 278.972 105.62V105.62Z" fill="black"/>
<path d="M273.039 105.756C282.119 105.756 289.481 98.3945 289.481 89.3139C289.481 80.2332 282.119 72.8719 273.039 72.8719C263.958 72.8719 256.597 80.2332 256.597 89.3139C256.597 98.3945 263.958 105.756 273.039 105.756Z" fill="#FABDBD"/>
<path d="M244.27 130.177C244.27 130.177 276.187 109.866 375.322 131.628C474.458 153.389 532.005 135.98 532.005 135.98V158.709C532.005 158.709 420.78 170.798 378.224 158.709C335.668 146.619 275.089 139.646 253.874 158.365L244.27 130.177Z" fill="#F86D70"/>
<path opacity="0.1" d="M244.27 130.177C244.27 130.177 276.187 109.866 375.322 131.628C474.458 153.389 532.005 135.98 532.005 135.98V158.709C532.005 158.709 420.78 170.798 378.224 158.709C335.668 146.619 275.089 139.646 253.874 158.365L244.27 130.177Z" fill="black"/>
<path d="M245.237 131.144C245.237 131.144 276.187 110.834 375.322 132.595C474.458 154.356 531.038 136.947 531.038 136.947L531.521 157.742C531.521 157.742 421.263 169.831 378.707 157.742C336.152 145.652 276.056 137.228 254.841 155.947L245.237 131.144Z" fill="#F86D70"/>
<path d="M233.602 162.384C233.602 162.384 201.685 182.695 102.55 160.933C3.41413 139.172 8.25001 156.581 8.25001 156.581V133.852C8.25001 133.852 57.0924 121.763 99.6481 133.852C142.204 145.942 202.783 152.915 223.998 134.196L233.602 162.384Z" fill="#F86D70"/>
<path opacity="0.1" d="M233.602 162.384C233.602 162.384 201.685 182.695 102.55 160.933C3.41413 139.172 8.25001 156.581 8.25001 156.581V133.852C8.25001 133.852 57.0924 121.763 99.6481 133.852C142.204 145.942 202.783 152.915 223.998 134.196L233.602 162.384Z" fill="black"/>
<path d="M232.635 161.417C232.635 161.417 201.685 181.727 102.55 159.966C3.41413 138.205 9.21719 155.614 9.21719 155.614L8.7336 134.819C8.7336 134.819 56.6088 122.73 99.1646 134.819C141.72 146.909 201.816 155.333 223.031 136.614L232.635 161.417Z" fill="#F86D70"/>
<path d="M258.899 92.0365C258.415 89.0189 257.67 85.2179 260.195 83.4915C261.095 82.9456 262.136 82.6765 263.188 82.7177C268.416 82.6645 273.411 86.3059 278.537 85.2421C280.168 84.9002 281.666 84.0944 282.851 82.9215C284.035 81.7486 284.855 80.2585 285.213 78.6306C285.57 77.0026 285.45 75.306 284.866 73.7447C284.282 72.1835 283.26 70.8242 281.922 69.8301C279.906 68.331 277.357 67.7894 274.891 67.2816C268.406 65.9469 261.636 64.617 255.233 66.3144C248.83 68.0118 242.979 73.752 243.491 80.3385C243.733 83.4915 245.339 86.3543 247.017 89.0431C248.293 91.0838 253.265 100.649 255.678 100.794C259.082 100.993 259.232 94.0095 258.899 92.0365Z" fill="#3F3D56"/>
<path d="M299.641 182.646C299.641 182.646 266.273 190.867 255.151 182.646C255.151 182.646 250.315 201.506 251.766 211.178C251.766 211.178 275.461 212.629 277.879 214.08C277.879 214.08 278.363 210.211 280.781 212.145C280.781 212.145 289.002 202.473 303.993 211.178C303.993 211.178 306.895 188.449 299.641 182.646Z" fill="#6C63FF"/>
<path opacity="0.1" d="M281.932 69.8301C281.588 69.5808 281.227 69.3547 280.853 69.1531C281.851 70.2876 282.534 71.6641 282.833 73.145C283.132 74.626 283.038 76.1596 282.558 77.5924C282.079 79.0253 281.232 80.3072 280.102 81.3102C278.972 82.3131 277.599 83.0019 276.119 83.3077C270.993 84.3716 265.998 80.7302 260.77 80.7834C259.718 80.7422 258.677 81.0112 257.777 81.5571C255.252 83.2835 255.992 87.0845 256.476 90.1021C256.795 92.0752 256.664 99.0582 253.27 98.8696H253.212C254.145 100.006 255.015 100.775 255.687 100.804C259.073 100.993 259.213 94.0337 258.894 92.0365C258.41 89.0189 257.67 85.2179 260.195 83.4915C261.095 82.9456 262.136 82.6765 263.188 82.7177C268.416 82.6646 273.411 86.306 278.537 85.2421C280.168 84.9002 281.666 84.0944 282.85 82.9215C284.035 81.7486 284.855 80.2586 285.213 78.6306C285.57 77.0026 285.45 75.306 284.866 73.7448C284.282 72.1835 283.26 70.8242 281.922 69.8301H281.932Z" fill="black"/>
<g opacity="0.1">
<path opacity="0.1" d="M41.7627 46.8597C41.7627 46.8597 5.60478 31.6557 0.865622 59.0751C0.865622 59.0751 -1.60551 63.3452 1.8328 66.8754C1.8328 66.8754 2.57269 64.9845 6.06903 66.9431C7.31716 67.6293 8.6416 68.1666 10.0151 68.5437C11.8712 69.0557 13.8434 68.9505 15.6344 68.2439C15.6344 68.2439 27.5258 67.6007 37.5264 52.0437C37.5264 52.0437 41.811 49.3937 42.0286 48.4023L34.8619 48.8859C34.8619 48.8859 35.4083 54.1328 32.4439 57.281C32.4439 57.281 35.0795 49.1422 33.8125 48.9101C33.5562 48.8617 30.026 49.3308 30.026 49.3308C30.026 49.3308 30.94 58.4513 26.1573 63.1711C26.1573 63.1711 30.5966 53.891 28.6623 49.4952L23.3766 50.5156C23.3766 50.5156 24.8274 60.11 19.595 65.6954C19.595 65.6954 23.8941 55.8302 22.2354 50.8154L17.1674 52.5176C17.1674 52.5176 18.3909 61.9089 14.0144 66.5417C14.0144 66.5417 17.8347 54.6406 16.0358 53.0012C16.0358 53.0012 11.4804 54.8485 10.5035 55.9028C10.5035 55.9028 11.2289 62.673 8.44345 65.0909C8.44345 65.0909 10.1554 56.8699 9.30907 56.5314C9.30907 56.5314 4.01378 60.5162 2.40343 63.9545C2.40343 63.9545 4.41516 58.7027 8.64172 55.7335C8.64172 55.7335 5.09218 55.1339 2.35507 56.6185C2.35507 56.6185 4.18787 53.1318 9.92323 54.7857C9.92323 54.7857 14.174 51.8455 15.0251 51.8841C15.0251 51.8841 9.59922 49.4662 5.67732 49.7612C5.67732 49.7612 9.8797 47.3433 16.3549 51.3861L21.4036 49.5581C21.4036 49.5581 14.3964 45.965 10.8807 45.9795C10.8807 45.9795 15.5522 44.1758 22.719 49.2051L27.8885 48.146C27.8885 48.146 22.0855 44.5916 18.1732 43.7647C18.1732 43.7647 22.8689 43.0248 29.3828 47.9042L32.9227 47.6044C32.9227 47.6044 28.6381 45.0849 27.3421 44.4707C26.0461 43.8566 26.1041 43.4552 26.1041 43.4552C29.1887 43.9908 32.0636 45.3738 34.4073 47.4496C34.4073 47.4496 41.7288 47.3094 41.7627 46.8597Z" fill="#6C63FF"/>
</g>
<g opacity="0.1">
<path opacity="0.1" d="M40.428 19.6047C40.428 19.6047 27.5935 -10.0248 9.17367 3.56405C9.17367 3.56405 5.27111 4.69564 5.30496 8.73844C5.30496 8.73844 6.82343 8.03724 7.78093 11.1902C8.13893 12.3099 8.62578 13.3842 9.2317 14.3916C10.0331 15.7465 11.2535 16.804 12.7087 17.4043V17.4043C12.7087 17.4043 20.1366 23.7974 34.9537 20.2527C34.9537 20.2527 39.0111 21.1231 39.7074 20.654L35.1762 16.853C35.1762 16.853 32.5165 20.2817 28.9476 20.4509C28.9476 20.4509 35.152 17.1142 34.5282 16.2534C34.4025 16.0793 32.0425 14.3481 32.0425 14.3481C32.0425 14.3481 27.3856 20.2865 21.8872 20.3784C21.8872 20.3784 29.8132 17.3898 31.1673 13.6807L27.4485 11.2628C27.4485 11.2628 22.835 17.7864 16.5532 18.1249C16.5532 18.1249 24.7259 14.7398 26.5973 10.7937L22.6174 8.91737C22.6174 8.91737 17.9943 15.204 12.7667 15.441C12.7667 15.441 21.8147 10.5471 21.6744 8.54984C21.6744 8.54984 17.9169 7.05072 16.7273 7.13776C16.7273 7.13776 13.3083 11.5626 10.2569 11.4369C10.2569 11.4369 15.9584 7.52463 15.6441 6.84278C15.6441 6.84278 10.2279 6.19477 7.31185 7.32636C7.31185 7.32636 11.4997 5.35332 15.7021 6.00133C15.7021 6.00133 13.937 3.61724 11.4755 2.95473C11.4755 2.95473 14.5512 1.92468 17.0175 6.17542C17.0175 6.17542 21.215 6.84761 21.7034 7.35054C21.7034 7.35054 19.8658 2.80965 17.3511 0.764071C17.3511 0.764071 21.2198 1.73125 22.7673 7.80995L26.8053 9.60406C26.8053 9.60406 24.692 3.477 22.5691 1.48945C22.5691 1.48945 26.3749 3.07562 27.7676 10.1457L31.4381 12.4621C31.4381 12.4621 30.0115 7.04588 28.1642 4.34746C28.1642 4.34746 31.3752 6.5768 32.4681 13.1874L34.741 15.0251C34.741 15.0251 33.6287 11.0887 33.208 9.9861C32.7873 8.88352 33.0532 8.68041 33.0532 8.68041C34.5781 10.7573 35.4971 13.2164 35.7081 15.7843C35.7081 15.7843 40.1668 19.8561 40.428 19.6047Z" fill="#6C63FF"/>
</g>
</g>
<defs>
<clipPath id="clip0_5_5">
<rect width="532" height="353.977" fill="white"/>
</clipPath>
</defs>
</svg>
