<svg width="79" height="76" viewBox="0 0 79 76" fill="none" xmlns="http://www.w3.org/2000/svg">
<path d="M13.1131 13.2333C10.597 3.96658 21.3175 -3.17513 28.8996 2.71671L35.1015 7.53604C38.498 10.1754 43.2018 10.347 46.7816 7.96222L52.9768 3.83514C61.0956 -1.57335 71.3618 6.65485 67.8509 15.7565L65.4129 22.0769C63.8249 26.1937 65.1227 30.8647 68.6069 33.5721L74.155 37.8834C81.7843 43.8119 77.4042 56.0398 67.7459 55.7758L59.6347 55.5542C55.4021 55.4385 51.5555 58.0011 50.0316 61.9515L47.1113 69.522C43.6341 78.5366 30.6626 77.8677 28.1308 68.5434L26.2897 61.7626C25.1335 57.5043 21.3231 54.5072 16.9123 54.3866L10.1405 54.2016C0.388807 53.9351 -3.24925 41.2914 4.86952 35.8829L11.0647 31.7558C14.6445 29.371 16.2983 24.9642 15.1712 20.8131L13.1131 13.2333Z" fill="url(#paint0_linear_8_76)"/>
<defs>
<linearGradient id="paint0_linear_8_76" x1="5.27261" y1="-15.6432" x2="73.7275" y2="87.1153" gradientUnits="userSpaceOnUse">
<stop stop-color="#F93636" stop-opacity="0.4"/>
<stop offset="1" stop-color="#0F00FF" stop-opacity="0.8"/>
</linearGradient>
</defs>
</svg>
